<svg version="1.1" xmlns="http://www.w3.org/2000/svg" xmlns:xlink="http://www.w3.org/1999/xlink" width="48" height="48"><defs><linearGradient x1="15.88869" y1="15.88869" x2="376.24544" y2="376.24543" gradientUnits="userSpaceOnUse" id="color-1"><stop offset="1" stop-color="#000000" stop-opacity="0.85"></stop><stop offset="1" stop-color="#000000" stop-opacity="0"></stop></linearGradient><filter id="dropshadow-base"><feColorMatrix type="matrix" values="0 0 0 0 0  0 0 0 0 0  0 0 0 0 0  0 0 0 .8 0"></feColorMatrix> <feOffset dx="0" dy="1"></feOffset> <feGaussianBlur stdDeviation="1"></feGaussianBlur> <feComposite in="SourceGraphic"></feComposite></filter><filter id="dropshadow-banner" x="-10%" y="-10%" width="120%" height="130%"><feColorMatrix type="matrix" values="0 0 0 0 0  0 0 0 0 0  0 0 0 0 0  0 0 0 .4 0"></feColorMatrix> <feOffset dx="0" dy="1"></feOffset> <feGaussianBlur stdDeviation="0.5"></feGaussianBlur> <feComposite in="SourceGraphic"></feComposite></filter></defs><g fill="none" fill-rule="nonzero" stroke="none" stroke-width="none" stroke-linecap="butt" stroke-linejoin="miter" stroke-miterlimit="10" stroke-dasharray="" stroke-dashoffset="0" font-family="none" font-weight="none" font-size="none" text-anchor="none" style="mix-blend-mode: normal"><path d="M2,24c0,-12.15026 9.84974,-22 22,-22c12.15026,0 22,9.84974 22,22c0,12.15026 -9.84974,22 -22,22c-12.15026,0 -22,-9.84974 -22,-22z" id="base 1 5" fill="#a8a32d" stroke-width="1"></path><path d="M17.28123,24.06913c-1.47563,-1.47563 -1.77076,-3.68907 -0.92227,-5.45983l3.20949,3.20949l2.25034,-2.25034l-3.20949,-3.20949c1.77076,-0.84848 3.98421,-0.55335 5.45983,0.92227l18.50845,18.50845c-1.73623,2.73016 -4.05774,5.05167 -6.7879,6.7879z" fill="url(#color-1)" stroke-width="1"></path><path transform="translate(4.53284,4.53284) scale(0.81113,0.81113)" d="M33.72712,30.31607l-8.32295,-8.32295c0.81865,-2.09211 0.36384,-4.59354 -1.31894,-6.27632c-1.81922,-1.81922 -4.54806,-2.18307 -6.73113,-1.13702l3.95681,3.95681l-2.77432,2.77432l-3.95681,-3.95681c-1.04605,2.18307 -0.68221,4.91191 1.13702,6.73113c1.68278,1.68278 4.18422,2.13759 6.27632,1.31894l8.32295,8.32295c0.36384,0.36384 0.95509,0.36384 1.27346,0l2.13759,-2.13759c0.36384,-0.31836 0.36384,-0.90961 0,-1.27346z" fill="none" stroke-width="0"></path><path d="M31.88997,30.15611l-1.73387,1.73387c-0.25824,0.29513 -0.73782,0.29513 -1.03294,0l-6.75101,-6.75101c-1.69698,0.66403 -3.72597,0.29513 -5.09093,-1.06983c-1.47563,-1.47563 -1.77076,-3.68908 -0.92227,-5.45983l3.2095,3.2095l2.25034,-2.25034l-3.2095,-3.2095c1.77076,-0.84849 3.9842,-0.55336 5.45983,0.92227c1.36496,1.36496 1.73387,3.39395 1.06983,5.09093l6.75101,6.75101c0.29513,0.29513 0.29513,0.77471 0,1.03294z" fill="#ffffff" stroke-width="0"></path><path d="M2,24c0,-12.15026 9.84974,-22 22,-22c12.15026,0 22,9.84974 22,22c0,12.15026 -9.84974,22 -22,22c-12.15026,0 -22,-9.84974 -22,-22z" id="base 1 1 1" fill="none" stroke-width="1"></path><g fill="#000000" stroke-width="1" font-family="Roboto, sans-serif" font-weight="normal" font-size="14" text-anchor="start"></g><rect x="2" y="2" width="44" height="22" fill="none" stroke-width="1"></rect><path d="M2,24v-22h44v22z" fill="none" stroke-width="1"></path><path d="M2,24v-22h44v22z" fill="none" stroke-width="1"></path><path d="M2,24v-22h44v22z" fill="none" stroke-width="1"></path><path d="M2,24v-22h44v22z" fill="none" stroke-width="1"></path><path d="M15.02,36v-12h30v12z" id="banner 1" fill="#404041" stroke-width="1" filter="url(#dropshadow-banner)"></path><text x="29" y="33" fill="#ffffff" stroke-width="1" font-family="sans-serif" font-weight="bold" font-size="8" text-anchor="middle">DEV</text></g></svg>